<svg xmlns="http://www.w3.org/2000/svg" version="1.1" xmlns:xlink="http://www.w3.org/1999/xlink" xmlns:svgjs="http://svgjs.dev/svgjs" viewBox="0 0 800 800"><g stroke="hsl(265, 55%, 20%)" fill="none" stroke-linecap="round"><circle r="325.5" cx="400" cy="400" stroke-width="9.5" stroke-dasharray="0 2045" opacity="0.05"></circle><circle r="310" cx="400" cy="400" stroke-width="9.5" stroke-dasharray="78 1948" transform="rotate(18, 400, 400)" opacity="0.10"></circle><circle r="294.5" cx="400" cy="400" stroke-width="9.5" stroke-dasharray="148 1850" transform="rotate(36, 400, 400)" opacity="0.15"></circle><circle r="279" cx="400" cy="400" stroke-width="9.5" stroke-dasharray="210 1753" transform="rotate(54, 400, 400)" opacity="0.19"></circle><circle r="263.5" cx="400" cy="400" stroke-width="9.5" stroke-dasharray="265 1656" transform="rotate(72, 400, 400)" opacity="0.24"></circle><circle r="248" cx="400" cy="400" stroke-width="9.5" stroke-dasharray="312 1558" transform="rotate(90, 400, 400)" opacity="0.29"></circle><circle r="232.5" cx="400" cy="400" stroke-width="9.5" stroke-dasharray="351 1461" transform="rotate(108, 400, 400)" opacity="0.33"></circle><circle r="217" cx="400" cy="400" stroke-width="9.5" stroke-dasharray="382 1363" transform="rotate(126, 400, 400)" opacity="0.38"></circle><circle r="201.5" cx="400" cy="400" stroke-width="9.5" stroke-dasharray="405 1266" transform="rotate(144, 400, 400)" opacity="0.43"></circle><circle r="186" cx="400" cy="400" stroke-width="9.5" stroke-dasharray="421 1169" transform="rotate(162, 400, 400)" opacity="0.48"></circle><circle r="170.5" cx="400" cy="400" stroke-width="9.5" stroke-dasharray="429 1071" transform="rotate(180, 400, 400)" opacity="0.53"></circle><circle r="155" cx="400" cy="400" stroke-width="9.5" stroke-dasharray="429 974" transform="rotate(198, 400, 400)" opacity="0.57"></circle><circle r="139.5" cx="400" cy="400" stroke-width="9.5" stroke-dasharray="421 877" transform="rotate(216, 400, 400)" opacity="0.62"></circle><circle r="124" cx="400" cy="400" stroke-width="9.5" stroke-dasharray="405 779" transform="rotate(234, 400, 400)" opacity="0.67"></circle><circle r="108.5" cx="400" cy="400" stroke-width="9.5" stroke-dasharray="382 682" transform="rotate(252, 400, 400)" opacity="0.71"></circle><circle r="93" cx="400" cy="400" stroke-width="9.5" stroke-dasharray="351 584" transform="rotate(270, 400, 400)" opacity="0.76"></circle><circle r="77.5" cx="400" cy="400" stroke-width="9.5" stroke-dasharray="312 487" transform="rotate(288, 400, 400)" opacity="0.81"></circle><circle r="62" cx="400" cy="400" stroke-width="9.5" stroke-dasharray="265 390" transform="rotate(306, 400, 400)" opacity="0.86"></circle><circle r="46.5" cx="400" cy="400" stroke-width="9.5" stroke-dasharray="210 292" transform="rotate(324, 400, 400)" opacity="0.91"></circle><circle r="31" cx="400" cy="400" stroke-width="9.5" stroke-dasharray="148 195" transform="rotate(342, 400, 400)" opacity="0.95"></circle><circle r="15.5" cx="400" cy="400" stroke-width="9.5" stroke-dasharray="78 97" transform="rotate(360, 400, 400)" opacity="1.00"></circle></g></svg>